<svg width="32" height="32" viewBox="0 0 32 32" fill="none" xmlns="http://www.w3.org/2000/svg">
<g clip-path="url(#clip0_2908_4924)">
<path d="M27.2 16C27.2 17.4708 26.9103 18.9272 26.3475 20.2861C25.7846 21.6449 24.9596 22.8796 23.9196 23.9196C22.8796 24.9596 21.6449 25.7846 20.2861 26.3475C18.9272 26.9103 17.4708 27.2 16 27.2M27.2 16C27.2 14.5292 26.9103 13.0728 26.3475 11.7139C25.7846 10.3551 24.9596 9.12042 23.9196 8.08041C22.8796 7.04039 21.6449 6.2154 20.2861 5.65255C18.9272 5.0897 17.4708 4.8 16 4.8M27.2 16H30M16 27.2C14.5292 27.2 13.0728 26.9103 11.7139 26.3475C10.3551 25.7846 9.12042 24.9596 8.0804 23.9196C7.04039 22.8796 6.2154 21.6449 5.65255 20.2861C5.0897 18.9272 4.8 17.4708 4.8 16M16 27.2V30M4.8 16C4.8 14.5292 5.0897 13.0728 5.65255 11.7139C6.2154 10.3551 7.04039 9.12042 8.0804 8.0804C9.12042 7.04039 10.3551 6.2154 11.7139 5.65255C13.0728 5.0897 14.5292 4.8 16 4.8M4.8 16H2M16 4.8V2" stroke="#1A75FF" stroke-width="2.5" stroke-linecap="round" stroke-linejoin="round"/>
<path d="M22 16C22 16.7879 21.8448 17.5681 21.5433 18.2961C21.2417 19.0241 20.7998 19.6855 20.2426 20.2426C19.6855 20.7998 19.0241 21.2417 18.2961 21.5433C17.5681 21.8448 16.7879 22 16 22C15.2121 22 14.4319 21.8448 13.7039 21.5433C12.9759 21.2417 12.3145 20.7998 11.7574 20.2426C11.2002 19.6855 10.7583 19.0241 10.4567 18.2961C10.1552 17.5681 10 16.7879 10 16C10 15.2121 10.1552 14.4319 10.4567 13.7039C10.7583 12.9759 11.2002 12.3145 11.7574 11.7574C12.3145 11.2002 12.9759 10.7583 13.7039 10.4567C14.4319 10.1552 15.2121 10 16 10C16.7879 10 17.5681 10.1552 18.2961 10.4567C19.0241 10.7583 19.6855 11.2002 20.2426 11.7574C20.7998 12.3145 21.2417 12.9759 21.5433 13.7039C21.8448 14.4319 22 15.2121 22 16L22 16Z" stroke="#1A75FF" stroke-width="2.5" stroke-linecap="round" stroke-linejoin="round"/>
</g>
<defs>
<clipPath id="clip0_2908_4924">
<rect width="32" height="32" fill="white"/>
</clipPath>
</defs>
</svg>
