<svg width="32" height="32" viewBox="0 0 32 32" fill="none" xmlns="http://www.w3.org/2000/svg">
<path d="M15.9997 8.65234C16.8113 8.65224 17.4693 9.31008 17.4694 10.1217L17.4702 16.6087L12.8889 21.1907C12.3151 21.7647 11.3846 21.7647 10.8107 21.1909C10.2368 20.617 10.2367 19.6866 10.8105 19.1126L14.531 15.3916L14.5303 10.1221C14.5302 9.31046 15.1881 8.65244 15.9997 8.65234Z" fill="#1A75FF"/>
<path fill-rule="evenodd" clip-rule="evenodd" d="M16 3C8.8203 3 3 8.8203 3 16C3 23.1797 8.8203 29 16 29C23.1797 29 29 23.1797 29 16C29 8.8203 23.1797 3 16 3ZM5.93906 16C5.93906 10.4435 10.4435 5.93906 16 5.93906C21.5565 5.93906 26.0609 10.4435 26.0609 16C26.0609 21.5565 21.5565 26.0609 16 26.0609C10.4435 26.0609 5.93906 21.5565 5.93906 16Z" fill="#1A75FF"/>
</svg>
