<svg width="40" height="40" viewBox="0 0 40 40" fill="none" xmlns="http://www.w3.org/2000/svg">
<path d="M23.9997 12.6523C24.8113 12.6522 25.4693 13.3101 25.4694 14.1217L25.4702 20.6087L20.8889 25.1907C20.3151 25.7647 19.3846 25.7647 18.8107 25.1909C18.2367 24.617 18.2367 23.6866 18.8105 23.1126L22.531 19.3916L22.5303 14.1221C22.5302 13.3105 23.1881 12.6524 23.9997 12.6523Z" fill="currentColor"/>
<path fill-rule="evenodd" clip-rule="evenodd" d="M24 7C16.8203 7 11 12.8203 11 20C11 27.1797 16.8203 33 24 33C31.1797 33 37 27.1797 37 20C37 12.8203 31.1797 7 24 7ZM13.9391 20C13.9391 14.4435 18.4435 9.93906 24 9.93906C29.5565 9.93906 34.0609 14.4435 34.0609 20C34.0609 25.5565 29.5565 30.0609 24 30.0609C18.4435 30.0609 13.9391 25.5565 13.9391 20Z" fill="currentColor"/>
<path d="M1.22461 15.3465H10.0525C10.3427 14.4913 10.7108 13.6721 11.1482 12.8973H1.22461C0.548277 12.8973 0 13.4455 0 14.1219C0 14.7982 0.548277 15.3465 1.22461 15.3465Z" fill="currentColor"/>
<path d="M9.2879 20C9.2879 19.2506 9.34488 18.5144 9.45473 17.7957H3.18399C2.50765 17.7957 1.95938 18.344 1.95938 19.0203C1.95938 19.6966 2.50765 20.2449 3.18399 20.2449H9.28993C9.28858 20.1634 9.2879 20.0818 9.2879 20Z" fill="currentColor"/>
<path d="M9.53826 22.6941C9.69731 23.5388 9.92975 24.3575 10.2287 25.1434H5.14336C4.46703 25.1434 3.91875 24.5951 3.91875 23.9188C3.91875 23.2424 4.46703 22.6941 5.14336 22.6941H9.53826Z" fill="currentColor"/>
</svg>

