<svg width="75" height="60" viewBox="0 0 75 60" fill="none" xmlns="http://www.w3.org/2000/svg">
<path d="M45.1253 30.3425C45.0425 30.5387 45 30.7493 45 30.9622C45 31.844 45.715 32.5588 46.5968 32.5588H48.8382C49.5448 32.5588 50.1177 33.1317 50.1177 33.8382V39.977C50.1177 40.8263 50.8061 41.5147 51.6554 41.5147C52.2742 41.5147 52.8327 41.1439 53.0726 40.5737L57.6689 29.6575C57.7517 29.4613 57.7941 29.2507 57.7941 29.0378C57.7941 28.156 57.0792 27.4412 56.1974 27.4412H53.9559C53.2493 27.4412 52.6765 26.8683 52.6765 26.1618V20.023C52.6765 19.1737 51.9881 18.4853 51.1388 18.4853C50.52 18.4853 49.9615 18.8561 49.7216 19.4263L45.1253 30.3425Z" fill="white"/>
<path fill-rule="evenodd" clip-rule="evenodd" d="M16.8529 46.6324C17.5595 46.6324 18.1324 46.0595 18.1324 45.3529C18.1324 44.6464 17.5595 44.0735 16.8529 44.0735H9.17647C7.76337 44.0735 6.61765 42.928 6.61765 41.5147C6.61765 40.1014 7.76337 38.9559 9.17647 38.9559H29.5874C30.517 38.9559 31.1411 37.9927 30.8371 37.1142C30.4548 36.009 30.159 34.8634 29.9582 33.6855C29.8489 33.0456 29.3069 32.5588 28.6578 32.5588H19.4118C17.9987 32.5588 16.8529 31.4133 16.8529 30C16.8529 28.5867 17.9987 27.4412 19.4118 27.4412H28.6578C29.3069 27.4412 29.8489 26.9544 29.9582 26.3145C30.159 25.1366 30.4548 23.991 30.8371 22.8858C31.1411 22.0073 30.517 21.0441 29.5874 21.0441H9.17647C7.76337 21.0441 6.61765 19.8986 6.61765 18.4853C6.61765 17.072 7.76337 15.9265 9.17647 15.9265H16.8529C17.5595 15.9265 18.1324 15.3536 18.1324 14.6471C18.1324 13.9405 17.5595 13.3676 16.8529 13.3676C15.4398 13.3676 14.2941 12.2221 14.2941 10.8088C14.2941 9.39557 15.4398 8.25 16.8529 8.25H51.3971C63.4094 8.25 73.1471 17.9879 73.1471 30C73.1471 42.0121 63.4094 51.75 51.3971 51.75H16.8529C15.4398 51.75 14.2941 50.6044 14.2941 49.1912C14.2941 47.7779 15.4398 46.6324 16.8529 46.6324ZM68.0294 30C68.0294 39.1858 60.5829 46.6324 51.3971 46.6324C42.2113 46.6324 34.7647 39.1858 34.7647 30C34.7647 20.8142 42.2113 13.3676 51.3971 13.3676C60.5829 13.3676 68.0294 20.8142 68.0294 30Z" fill="white"/>
<path d="M6.61765 27.4412C8.03075 27.4412 9.17647 28.5867 9.17647 30C9.17647 31.4133 8.03075 32.5588 6.61765 32.5588H4.05882C2.64572 32.5588 1.5 31.4133 1.5 30C1.5 28.5867 2.64572 27.4412 4.05882 27.4412H6.61765Z" fill="white"/>
</svg>
