<svg width="19" height="21" viewBox="0 0 19 21" fill="none" xmlns="http://www.w3.org/2000/svg">
<path d="M16.2142 11.0109C16.2142 11.821 14.8372 11.821 14.8372 11.0109C14.8372 8.46459 14.8372 5.91797 14.8372 3.37164C14.8372 2.65938 13.4642 2.6588 13.4642 3.37164C13.4642 5.38909 13.4642 7.40682 13.4642 9.42427C13.4642 10.234 12.0869 10.234 12.0869 9.42427C12.0869 6.8695 12.0869 4.31502 12.0869 1.76025C12.0869 1.0474 10.7142 1.0474 10.7142 1.76025C10.7142 4.13775 10.7142 6.51613 10.7142 8.89364C10.7142 9.7037 9.33687 9.7037 9.33687 8.89364V3.22378C9.33687 2.4891 7.96414 2.49522 7.96414 3.20777L7.96122 11.3652C7.92997 12.6779 6.60801 13.2892 5.46082 12.574C4.42883 11.9275 3.63507 10.4197 2.70072 9.6158C2.08856 9.08924 0.981396 9.24817 1.48779 10.0358C1.8972 10.6701 2.95945 12.2777 4.13984 14.0643C5.36644 15.922 5.44487 17.5397 7.08089 19.2129C7.49127 19.8491 6.526 20.5917 5.82076 19.7828C4.23845 18.0986 4.16327 16.5175 2.95685 14.6898C1.86628 13.0391 0.882786 11.5509 0.299263 10.6468C-0.889588 8.8005 1.71853 7.06685 3.65297 8.73122C4.25635 9.25079 5.16727 10.5455 5.84387 11.2257C6.38313 11.7689 6.58686 11.8437 6.58686 11.1445L6.58686 3.20777C6.58686 1.90753 8.06275 1.16034 9.35282 1.53525C9.66004 -0.592224 13.3727 -0.48016 13.4625 1.69476C14.751 1.32946 16.2142 2.07578 16.2142 3.37164V4.44629C17.4815 4.08594 18.9645 4.8145 18.9645 6.12376V10.9975C19.0055 11.4842 19.4839 18.0878 15.1907 20.8574C14.2072 21.3656 13.5852 20.3836 14.212 19.9679C17.4561 18.0477 17.5872 14.1109 17.5872 11.0109V6.12376C17.5872 5.41121 16.2142 5.41092 16.2142 6.12376C16.2142 7.75262 16.2142 9.38206 16.2142 11.0109Z" fill="var(--text-secondary)" fill-opacity="0.6"/>
</svg>
