<svg width="32" height="32" viewBox="0 0 32 32" fill="none" xmlns="http://www.w3.org/2000/svg">
<path d="M6.53033 26.5303L26.5303 6.53033C26.8232 6.23744 26.8232 5.76256 26.5303 5.46967C26.2374 5.17678 25.7626 5.17678 25.4697 5.46967L5.46967 25.4697C5.17678 25.7626 5.17678 26.2374 5.46967 26.5303C5.76256 26.8232 6.23744 26.8232 6.53033 26.5303Z" fill="var(--text-secondary)" fill-opacity="0.18"/>
<path d="M18.4625 7.69476C19.4417 7.41714 20.5218 7.78153 20.9839 8.54122L19.8372 9.68791V9.37164C19.8372 8.65938 18.4642 8.6588 18.4642 9.37164V11.061L17.0869 12.4382V7.76025C17.0869 7.0474 15.7142 7.0474 15.7142 7.76025L15.7142 13.811L14.3863 15.1388C14.3547 15.0676 14.3369 14.9858 14.3369 14.8936V9.22378C14.3369 8.4891 12.9641 8.49522 12.9641 9.20777L12.9615 16.5636L10.7851 18.74C10.6763 18.6959 10.5678 18.6407 10.4608 18.574C9.87388 18.2063 9.364 17.56 8.86148 16.9231C8.48045 16.4401 8.10366 15.9625 7.70072 15.6158C7.08856 15.0892 5.9814 15.2482 6.48779 16.0358C6.89163 16.6615 7.93069 18.2341 9.09176 19.9915L9.13984 20.0643C9.18306 20.1298 9.22485 20.1949 9.26534 20.2598L8.28985 21.2353C8.18854 21.0557 8.07844 20.874 7.95685 20.6898L7.90275 20.6079C6.83381 18.99 5.87312 17.5359 5.29926 16.6468C4.11041 14.8005 6.71853 13.0668 8.65297 14.7312C8.98417 15.0164 9.40803 15.5352 9.83494 16.0576C10.1858 16.487 10.5387 16.9189 10.8439 17.2257C11.3831 17.7689 11.5869 17.8437 11.5869 17.1445L11.5869 9.20777C11.5869 7.90753 13.0628 7.16034 14.3528 7.53525C14.66 5.40778 18.3727 5.51984 18.4625 7.69476Z" fill="var(--text-secondary)" fill-opacity="0.18"/>
<path d="M9.90025 24.5746L10.8863 23.5886C11.1818 24.1309 11.5491 24.669 12.0809 25.2129C12.4913 25.8491 11.526 26.5917 10.8208 25.7828C10.4383 25.3757 10.1439 24.9746 9.90025 24.5746Z" fill="var(--text-secondary)" fill-opacity="0.18"/>
<path d="M19.8372 14.6377L21.2142 13.2607V17.0109C21.2142 17.821 19.8372 17.821 19.8372 17.0109V14.6377Z" fill="var(--text-secondary)" fill-opacity="0.18"/>
<path d="M22.5872 12.1238C22.5872 12.051 22.5729 11.9856 22.5472 11.9277L23.4915 10.9834C23.7825 11.2777 23.9645 11.6651 23.9645 12.1238V16.9975C24.0055 17.4842 24.4839 24.0878 20.1907 26.8574C19.2072 27.3656 18.5852 26.3836 19.212 25.9679C22.4561 24.0477 22.5872 20.1109 22.5872 17.0109V12.1238Z" fill="var(--text-secondary)" fill-opacity="0.18"/>
</svg>
