<svg width="22" height="18" viewBox="0 0 22 18" fill="none" xmlns="http://www.w3.org/2000/svg">
<path fill-rule="evenodd" clip-rule="evenodd" d="M20.1494 4.50781C20.5713 4.50781 20.9287 4.66016 21.2217 4.96484C21.5146 5.25781 21.6611 5.60938 21.6611 6.01953V15.9336C21.6611 16.3438 21.5088 16.6953 21.2041 16.9883C20.9111 17.293 20.5596 17.4453 20.1494 17.4453H1.85059C1.44043 17.4453 1.08301 17.2988 0.77832 17.0059C0.485352 16.7129 0.338867 16.3555 0.338867 15.9336V6.01953C0.338867 5.60938 0.485352 5.25781 0.77832 4.96484C1.08301 4.66016 1.44043 4.50781 1.85059 4.50781H9.9541V3.66406C9.9541 3.25391 10.1006 2.90234 10.3936 2.60938C10.6865 2.31641 11.0381 2.16992 11.4482 2.16992C11.5068 2.16992 11.5596 2.14648 11.6064 2.09961C11.6533 2.05273 11.6768 2 11.6768 1.94141V1C11.6768 0.723858 11.9006 0.5 12.1768 0.5H12.4424C12.7185 0.5 12.9424 0.723858 12.9424 1V1.92383C12.9424 2.33398 12.7959 2.68555 12.5029 2.97852C12.21 3.27148 11.8584 3.41797 11.4482 3.41797C11.3896 3.41797 11.3369 3.44141 11.29 3.48828C11.2432 3.53516 11.2197 3.58789 11.2197 3.64648V4.50781H20.1494ZM20.3604 6.03711V15.9512C20.3604 16.0098 20.3369 16.0625 20.29 16.1094C20.2549 16.1445 20.208 16.1621 20.1494 16.1621H1.85059C1.80281 16.1621 1.75893 16.1465 1.71895 16.1154C1.70029 16.1008 1.68465 16.0827 1.67258 16.0623C1.65063 16.0253 1.63965 15.9882 1.63965 15.9512V6.03711C1.63965 5.97852 1.65723 5.93164 1.69238 5.89648C1.73926 5.84961 1.79199 5.82617 1.85059 5.82617H20.1494C20.1826 5.82617 20.212 5.83367 20.2376 5.84868C20.2785 5.8726 20.3139 5.90802 20.3378 5.94892C20.3528 5.97456 20.3604 6.00396 20.3604 6.03711Z" fill="var(--text-secondary)" fill-opacity="0.6"/>
<path fill-rule="evenodd" clip-rule="evenodd" d="M7.34277 13.0859C7.06663 13.0859 6.84277 13.3098 6.84277 13.5859V14.168C6.84277 14.4441 7.06663 14.668 7.34277 14.668H14.5518C14.8279 14.668 15.0518 14.4441 15.0518 14.168V13.5859C15.0518 13.3098 14.8279 13.0859 14.5518 13.0859H7.34277ZM4.2666 7.12695C3.99046 7.12695 3.7666 7.35081 3.7666 7.62695V8.63086C3.7666 8.907 3.99046 9.13086 4.2666 9.13086H5.23535C5.51149 9.13086 5.73535 8.907 5.73535 8.63086V7.62695C5.73535 7.35081 5.51149 7.12695 5.23535 7.12695H4.2666ZM7.37793 7.12695C7.10179 7.12695 6.87793 7.35081 6.87793 7.62695V8.63086C6.87793 8.907 7.10179 9.13086 7.37793 9.13086H8.36426C8.6404 9.13086 8.86426 8.907 8.86426 8.63086V7.62695C8.86426 7.35081 8.6404 7.12695 8.36426 7.12695H7.37793ZM10.4717 7.12695C10.1955 7.12695 9.97168 7.35081 9.97168 7.62695V8.63086C9.97168 8.907 10.1955 9.13086 10.4717 9.13086H11.458C11.7341 9.13086 11.958 8.907 11.958 8.63086V7.62695C11.958 7.35081 11.7341 7.12695 11.458 7.12695H10.4717ZM13.583 7.12695C13.3069 7.12695 13.083 7.35081 13.083 7.62695V8.63086C13.083 8.907 13.3069 9.13086 13.583 9.13086H14.5693C14.8455 9.13086 15.0693 8.907 15.0693 8.63086V7.62695C15.0693 7.35081 14.8455 7.12695 14.5693 7.12695H13.583ZM16.6768 7.12695C16.4006 7.12695 16.1768 7.35081 16.1768 7.62695V8.63086C16.1768 8.907 16.4006 9.13086 16.6768 9.13086H17.6631C17.9392 9.13086 18.1631 8.907 18.1631 8.63086V7.62695C18.1631 7.35081 17.9392 7.12695 17.6631 7.12695H16.6768ZM4.2666 10.1152C3.99046 10.1152 3.7666 10.3391 3.7666 10.6152V11.6191C3.7666 11.8953 3.99046 12.1191 4.2666 12.1191H5.23535C5.51149 12.1191 5.73535 11.8953 5.73535 11.6191V10.6152C5.73535 10.3391 5.51149 10.1152 5.23535 10.1152H4.2666ZM7.37793 10.1152C7.10179 10.1152 6.87793 10.3391 6.87793 10.6152V11.6191C6.87793 11.8953 7.10179 12.1191 7.37793 12.1191H8.36426C8.6404 12.1191 8.86426 11.8953 8.86426 11.6191V10.6152C8.86426 10.3391 8.6404 10.1152 8.36426 10.1152H7.37793ZM10.4717 10.1152C10.1955 10.1152 9.97168 10.3391 9.97168 10.6152V11.6191C9.97168 11.8953 10.1955 12.1191 10.4717 12.1191H11.458C11.7341 12.1191 11.958 11.8953 11.958 11.6191V10.6152C11.958 10.3391 11.7341 10.1152 11.458 10.1152H10.4717ZM13.583 10.1152C13.3069 10.1152 13.083 10.3391 13.083 10.6152V11.6191C13.083 11.8953 13.3069 12.1191 13.583 12.1191H14.5693C14.8455 12.1191 15.0693 11.8953 15.0693 11.6191V10.6152C15.0693 10.3391 14.8455 10.1152 14.5693 10.1152H13.583ZM16.6768 10.1152C16.4006 10.1152 16.1768 10.3391 16.1768 10.6152V11.6191C16.1768 11.8953 16.4006 12.1191 16.6768 12.1191H17.6631C17.9392 12.1191 18.1631 11.8953 18.1631 11.6191V10.6152C18.1631 10.3391 17.9392 10.1152 17.6631 10.1152H16.6768Z" fill="var(--text-secondary)" fill-opacity="0.6"/>
</svg>
