<svg width="32" height="32" viewBox="0 0 32 32" fill="none" xmlns="http://www.w3.org/2000/svg">
<path d="M26.5303 6.53033C26.8232 6.23744 26.8232 5.76256 26.5303 5.46967C26.2374 5.17678 25.7626 5.17678 25.4697 5.46967L5.46967 25.4697C5.17678 25.7626 5.17678 26.2374 5.46967 26.5303C5.76256 26.8232 6.23744 26.8232 6.53033 26.5303L26.5303 6.53033Z" fill="var(--text-secondary)" fill-opacity="0.18"/>
<path d="M19.0173 10.5078H16.2197V9.64648C16.2197 9.58789 16.2432 9.53516 16.29 9.48828C16.3369 9.44141 16.3896 9.41797 16.4482 9.41797C16.8584 9.41797 17.21 9.27148 17.5029 8.97852C17.7959 8.68555 17.9424 8.33398 17.9424 7.92383V7C17.9424 6.72386 17.7185 6.5 17.4424 6.5H17.1768C16.9006 6.5 16.6768 6.72386 16.6768 7V7.94141C16.6768 8 16.6533 8.05273 16.6064 8.09961C16.5596 8.14648 16.5068 8.16992 16.4482 8.16992C16.0381 8.16992 15.6865 8.31641 15.3936 8.60938C15.1006 8.90234 14.9541 9.25391 14.9541 9.66406V10.5078H6.85059C6.44043 10.5078 6.08301 10.6602 5.77832 10.9648C5.48535 11.2578 5.33887 11.6094 5.33887 12.0195V21.9336C5.33887 22.3555 5.48535 22.7129 5.77832 23.0059C5.91366 23.136 6.05941 23.2372 6.21557 23.3096L7.36302 22.1621H6.85059C6.80281 22.1621 6.75893 22.1465 6.71895 22.1154C6.70029 22.1008 6.68465 22.0827 6.67258 22.0623C6.65063 22.0253 6.63965 21.9882 6.63965 21.9512V12.0371C6.63965 11.9785 6.65723 11.9316 6.69238 11.8965C6.73926 11.8496 6.79199 11.8262 6.85059 11.8262H17.699L19.0173 10.5078Z" fill="var(--text-secondary)" fill-opacity="0.18"/>
<path d="M19.344 15.1309L20.0693 14.4055V14.6309C20.0693 14.907 19.8455 15.1309 19.5693 15.1309H19.344Z" fill="var(--text-secondary)" fill-opacity="0.18"/>
<path d="M16.958 17.5169L16.3557 18.1191H16.458C16.7341 18.1191 16.958 17.8953 16.958 17.6191V17.5169Z" fill="var(--text-secondary)" fill-opacity="0.18"/>
<path d="M13.8069 20.668L15.3889 19.0859H19.5518C19.8279 19.0859 20.0518 19.3098 20.0518 19.5859V20.168C20.0518 20.4441 19.8279 20.668 19.5518 20.668H13.8069Z" fill="var(--text-secondary)" fill-opacity="0.18"/>
<path d="M25.1494 22.1621H12.3128L11.0296 23.4453H25.1494C25.5596 23.4453 25.9111 23.293 26.2041 22.9883C26.5088 22.6953 26.6611 22.3438 26.6611 21.9336V12.0195C26.6611 11.6094 26.5146 11.2578 26.2217 10.9648C25.9287 10.6602 25.5713 10.5078 25.1494 10.5078H23.9671L22.6487 11.8262H25.1494C25.1826 11.8262 25.212 11.8337 25.2376 11.8487C25.2785 11.8726 25.3139 11.908 25.3378 11.9489C25.3528 11.9746 25.3604 12.004 25.3604 12.0371V21.9512C25.3604 22.0098 25.3369 22.0625 25.29 22.1094C25.2549 22.1445 25.208 22.1621 25.1494 22.1621Z" fill="var(--text-secondary)" fill-opacity="0.18"/>
<path d="M16.3982 13.127H15.4717C15.1955 13.127 14.9717 13.3508 14.9717 13.627V14.5534L16.3982 13.127Z" fill="var(--text-secondary)" fill-opacity="0.18"/>
<path d="M13.3643 16.1152C13.379 16.1152 13.3936 16.1159 13.408 16.1171L11.8787 17.6465C11.8782 17.6374 11.8779 17.6283 11.8779 17.6191V16.6152C11.8779 16.3391 12.1018 16.1152 12.3779 16.1152H13.3643Z" fill="var(--text-secondary)" fill-opacity="0.18"/>
<path d="M8.7666 13.627C8.7666 13.3508 8.99046 13.127 9.2666 13.127H10.2354C10.5115 13.127 10.7354 13.3508 10.7354 13.627V14.6309C10.7354 14.907 10.5115 15.1309 10.2354 15.1309H9.2666C8.99046 15.1309 8.7666 14.907 8.7666 14.6309V13.627Z" fill="var(--text-secondary)" fill-opacity="0.18"/>
<path d="M12.3779 13.127C12.1018 13.127 11.8779 13.3508 11.8779 13.627V14.6309C11.8779 14.907 12.1018 15.1309 12.3779 15.1309H13.3643C13.6404 15.1309 13.8643 14.907 13.8643 14.6309V13.627C13.8643 13.3508 13.6404 13.127 13.3643 13.127H12.3779Z" fill="var(--text-secondary)" fill-opacity="0.18"/>
<path d="M21.1768 13.627C21.1768 13.3508 21.4006 13.127 21.6768 13.127H22.6631C22.9392 13.127 23.1631 13.3508 23.1631 13.627V14.6309C23.1631 14.907 22.9392 15.1309 22.6631 15.1309H21.6768C21.4006 15.1309 21.1768 14.907 21.1768 14.6309V13.627Z" fill="var(--text-secondary)" fill-opacity="0.18"/>
<path d="M9.2666 16.1152C8.99046 16.1152 8.7666 16.3391 8.7666 16.6152V17.6191C8.7666 17.8953 8.99046 18.1191 9.2666 18.1191H10.2354C10.5115 18.1191 10.7354 17.8953 10.7354 17.6191V16.6152C10.7354 16.3391 10.5115 16.1152 10.2354 16.1152H9.2666Z" fill="var(--text-secondary)" fill-opacity="0.18"/>
<path d="M18.083 16.6152C18.083 16.3391 18.3069 16.1152 18.583 16.1152H19.5693C19.8455 16.1152 20.0693 16.3391 20.0693 16.6152V17.6191C20.0693 17.8953 19.8455 18.1191 19.5693 18.1191H18.583C18.3069 18.1191 18.083 17.8953 18.083 17.6191V16.6152Z" fill="var(--text-secondary)" fill-opacity="0.18"/>
<path d="M21.6768 16.1152C21.4006 16.1152 21.1768 16.3391 21.1768 16.6152V17.6191C21.1768 17.8953 21.4006 18.1191 21.6768 18.1191H22.6631C22.9392 18.1191 23.1631 17.8953 23.1631 17.6191V16.6152C23.1631 16.3391 22.9392 16.1152 22.6631 16.1152H21.6768Z" fill="var(--text-secondary)" fill-opacity="0.18"/>
</svg>
