<svg width="256" height="48" viewBox="0 0 256 48" fill="none" xmlns="http://www.w3.org/2000/svg">
<g id="Frame 4936">
<g id="&#209;&#136;&#208;&#186;&#208;&#190;&#208;&#187;&#208;&#176;&#208;&#191;&#208;&#181;&#209;&#135;&#208;&#176;&#209;&#130;&#208;&#184;.&#209;&#128;&#209;&#132;">
<path d="M18.9317 15.6667H23.0992V32.3333H0V15.6667H4.16755V28.3H9.46583V15.6667H13.6334V28.3H18.9317V15.6667Z" fill="currentColor"/>
<path d="M41.805 32.3333H36.959L31.0792 24.7667V32.3333H26.9116V15.6667H31.0792V23L36.6359 15.6667H41.6112L35.1175 23.9L41.805 32.3333Z" fill="currentColor"/>
<path d="M56.4805 30.2667C54.8221 31.9556 52.7976 32.8 50.4069 32.8C48.0162 32.8 45.9916 31.9556 44.3332 30.2667C42.6964 28.5556 41.8779 26.4667 41.8779 24C41.8779 21.5333 42.6964 19.4556 44.3332 17.7667C45.9916 16.0556 48.0162 15.2 50.4069 15.2C52.7976 15.2 54.8221 16.0556 56.4805 17.7667C58.1389 19.4556 58.9681 21.5333 58.9681 24C58.9681 26.4667 58.1389 28.5556 56.4805 30.2667ZM47.2731 27.3C48.1131 28.1667 49.1577 28.6 50.4069 28.6C51.6561 28.6 52.7006 28.1667 53.5406 27.3C54.3806 26.4333 54.8006 25.3333 54.8006 24C54.8006 22.6667 54.3806 21.5667 53.5406 20.7C52.7006 19.8333 51.6561 19.4 50.4069 19.4C49.1577 19.4 48.1131 19.8333 47.2731 20.7C46.4547 21.5667 46.0455 22.6667 46.0455 24C46.0455 25.3333 46.4547 26.4333 47.2731 27.3Z" fill="currentColor"/>
<path d="M75.3493 15.6667V32.3333H71.1818V19.8H66.7235V25.3667C66.7235 30.5222 64.4512 32.8444 59.9068 32.3333V28.3C60.7683 28.5222 61.4252 28.3778 61.8775 27.8667C62.3298 27.3333 62.5559 26.4222 62.5559 25.1333V15.6667H75.3493Z" fill="currentColor"/>
<path d="M91.4024 15.6667H95.57V32.3333H91.4024V30.3667C90.1533 31.9889 88.3979 32.8 86.1365 32.8C83.9827 32.8 82.1304 31.9556 80.5797 30.2667C79.0505 28.5556 78.2859 26.4667 78.2859 24C78.2859 21.5333 79.0505 19.4556 80.5797 17.7667C82.1304 16.0556 83.9827 15.2 86.1365 15.2C88.3979 15.2 90.1533 16.0111 91.4024 17.6333V15.6667ZM83.7135 27.4C84.5534 28.2667 85.6195 28.7 86.9118 28.7C88.2041 28.7 89.2702 28.2667 90.1102 27.4C90.9717 26.5111 91.4024 25.3778 91.4024 24C91.4024 22.6222 90.9717 21.5 90.1102 20.6333C89.2702 19.7444 88.2041 19.3 86.9118 19.3C85.6195 19.3 84.5534 19.7444 83.7135 20.6333C82.8735 21.5 82.4535 22.6222 82.4535 24C82.4535 25.3778 82.8735 26.5111 83.7135 27.4Z" fill="currentColor"/>
<path d="M114.113 15.6667V32.3333H109.946V19.7H103.517V32.3333H99.3491V15.6667H114.113Z" fill="currentColor"/>
<path d="M121.453 25.7667C122.013 27.8556 123.532 28.9 126.008 28.9C127.602 28.9 128.808 28.3444 129.627 27.2333L132.987 29.2333C131.393 31.6111 129.045 32.8 125.944 32.8C123.273 32.8 121.13 31.9667 119.515 30.3C117.899 28.6333 117.092 26.5333 117.092 24C117.092 21.4889 117.889 19.4 119.482 17.7333C121.076 16.0444 123.122 15.2 125.621 15.2C127.99 15.2 129.939 16.0444 131.468 17.7333C133.019 19.4222 133.794 21.5111 133.794 24C133.794 24.5556 133.74 25.1444 133.633 25.7667H121.453ZM121.389 22.4333H129.627C129.39 21.3 128.894 20.4556 128.141 19.9C127.408 19.3444 126.568 19.0667 125.621 19.0667C124.501 19.0667 123.575 19.3667 122.842 19.9667C122.11 20.5444 121.625 21.3667 121.389 22.4333Z" fill="currentColor"/>
<path d="M146.234 15.6667H150.402V32.3333H146.234V27.0333C145.028 27.4333 143.746 27.6333 142.39 27.6333C140.43 27.6333 138.857 27.1222 137.673 26.1C136.51 25.0778 135.928 23.5889 135.928 21.6333V15.6667H140.096V21.1333C140.096 22.8 141.097 23.6333 143.1 23.6333C144.263 23.6333 145.308 23.4222 146.234 23V15.6667Z" fill="currentColor"/>
<path d="M166.458 15.6667H170.626V32.3333H166.458V30.3667C165.209 31.9889 163.454 32.8 161.193 32.8C159.039 32.8 157.186 31.9556 155.636 30.2667C154.107 28.5556 153.342 26.4667 153.342 24C153.342 21.5333 154.107 19.4556 155.636 17.7667C157.186 16.0556 159.039 15.2 161.193 15.2C163.454 15.2 165.209 16.0111 166.458 17.6333V15.6667ZM158.77 27.4C159.609 28.2667 160.676 28.7 161.968 28.7C163.26 28.7 164.326 28.2667 165.166 27.4C166.028 26.5111 166.458 25.3778 166.458 24C166.458 22.6222 166.028 21.5 165.166 20.6333C164.326 19.7444 163.26 19.3 161.968 19.3C160.676 19.3 159.609 19.7444 158.77 20.6333C157.93 21.5 157.51 22.6222 157.51 24C157.51 25.3778 157.93 26.5111 158.77 27.4Z" fill="currentColor"/>
<path d="M187.134 15.6667V19.8H182.094V32.3333H177.927V19.8H172.822V15.6667H187.134Z" fill="currentColor"/>
<path d="M201.022 15.6667H204.124V32.3333H200.053V22.8667L192.461 32.3333H189.36V15.6667H193.43V25.1333L201.022 15.6667Z" fill="currentColor"/>
<path d="M212.304 31.9333C211.765 32.4889 211.119 32.7667 210.365 32.7667C209.611 32.7667 208.965 32.4889 208.427 31.9333C207.888 31.3778 207.619 30.7111 207.619 29.9333C207.619 29.1556 207.888 28.4889 208.427 27.9333C208.965 27.3778 209.611 27.1 210.365 27.1C211.119 27.1 211.765 27.3778 212.304 27.9333C212.842 28.4889 213.111 29.1556 213.111 29.9333C213.111 30.7111 212.842 31.3778 212.304 31.9333Z" fill="currentColor"/>
<path d="M225.988 15.2C228.163 15.2 230.015 16.0556 231.545 17.7667C233.095 19.4556 233.871 21.5333 233.871 24C233.871 26.4667 233.095 28.5556 231.545 30.2667C230.015 31.9556 228.163 32.8 225.988 32.8C223.726 32.8 221.982 31.9889 220.754 30.3667V39H216.587V15.6667H220.754V17.6333C221.982 16.0111 223.726 15.2 225.988 15.2ZM222.014 27.4C222.854 28.2667 223.92 28.7 225.213 28.7C226.505 28.7 227.571 28.2667 228.411 27.4C229.272 26.5111 229.703 25.3778 229.703 24C229.703 22.6222 229.272 21.5 228.411 20.6333C227.571 19.7444 226.505 19.3 225.213 19.3C223.92 19.3 222.854 19.7444 222.014 20.6333C221.174 21.5 220.754 22.6222 220.754 24C220.754 25.3778 221.174 26.5111 222.014 27.4Z" fill="currentColor"/>
<path d="M253.868 18.3C255.289 19.8778 256 21.7778 256 24C256 26.2222 255.289 28.1222 253.868 29.7C252.446 31.2778 250.497 32.2444 248.02 32.6V39H243.95V32.6C241.473 32.2444 239.524 31.2778 238.102 29.7C236.681 28.1222 235.97 26.2222 235.97 24C235.97 21.7778 236.681 19.8778 238.102 18.3C239.524 16.7222 241.473 15.7556 243.95 15.4V9H248.02V15.4C250.497 15.7556 252.446 16.7222 253.868 18.3ZM240.073 24C240.073 25.1111 240.407 26.0667 241.074 26.8667C241.742 27.6667 242.7 28.2111 243.95 28.5V19.5C242.7 19.7889 241.742 20.3333 241.074 21.1333C240.407 21.9111 240.073 22.8667 240.073 24ZM248.02 28.4667C249.269 28.1778 250.217 27.6444 250.863 26.8667C251.531 26.0667 251.865 25.1111 251.865 24C251.865 22.8667 251.531 21.9111 250.863 21.1333C250.217 20.3333 249.269 19.7889 248.02 19.5V28.4667Z" fill="currentColor"/>
</g>
</g>
</svg>
