<svg width="24" height="24" viewBox="0 0 24 24" fill="none" xmlns="http://www.w3.org/2000/svg">
<path d="M11.8917 21.2451V22.9178C11.8917 23.402 12.4199 23.7101 12.838 23.446L17.3498 20.6289C17.7459 20.3868 17.7459 19.8146 17.3498 19.5725L12.86 16.7774C12.4419 16.5133 11.9137 16.8214 11.9137 17.3056V18.9783C11.8917 18.9783 11.8697 18.9783 11.8697 18.9783C8.10621 18.9122 5.00302 15.787 4.98101 12.0236C4.937 7.95204 8.37032 4.67278 12.4859 4.95889C15.8752 5.17897 18.6703 7.88601 19.0004 11.2753C19.1765 13.058 18.6923 14.7086 17.7459 16.0291C17.5258 16.3373 17.6139 16.7554 17.944 16.9535L18.8023 17.4597C19.0884 17.6358 19.4626 17.5477 19.6607 17.2836C20.7171 15.787 21.3333 13.9603 21.3333 11.9796C21.3333 6.60952 16.7775 2.29587 11.3194 2.69202C6.71968 3.02214 3.04427 6.69756 2.69214 11.2313C2.29598 16.6674 6.56562 21.2011 11.8917 21.2451Z" fill="currentColor" fill-opacity="0.6"/>
</svg>
