<svg width="18" height="18" viewBox="0 0 18 18" fill="none" xmlns="http://www.w3.org/2000/svg">
<path fill-rule="evenodd" clip-rule="evenodd" d="M1.93321 8.70761C1.94297 8.54601 1.87398 8.39222 1.74658 8.30381L0.46692 7.41568C0.239705 7.2526 0.0818431 7.01315 0.0241344 6.74301C-0.0335773 6.47285 0.0130687 6.19152 0.154892 5.95306L1.899 3.01795C2.03835 2.78747 2.25835 2.61337 2.5176 2.52833C2.77683 2.44329 3.06029 2.45276 3.31341 2.55392L4.78698 3.21492C4.91999 3.27467 5.07668 3.26158 5.20495 3.18293C5.38078 3.07511 5.56129 2.97475 5.74598 2.88212C5.88505 2.81238 5.97949 2.68054 5.99339 2.53159L6.13561 1.00801C6.15512 0.733665 6.28072 0.477133 6.48651 0.290147C6.69252 0.102953 6.9635 -0.000600712 7.24444 2.62162e-06H10.7515C11.0326 -0.000600712 11.3037 0.102953 11.5098 0.290147C11.7157 0.477133 11.8414 0.733665 11.8609 1.00801L12.0032 2.53159C12.0171 2.68054 12.1116 2.81238 12.2508 2.88212C12.4356 2.97475 12.6162 3.07511 12.7921 3.18293C12.9204 3.26158 13.0772 3.27467 13.2103 3.21492L14.6847 2.55392C14.938 2.45276 15.2216 2.44329 15.481 2.52833C15.7404 2.61337 15.9605 2.78747 16.0999 3.01795L17.845 5.95306C17.9869 6.19152 18.0336 6.47285 17.9759 6.74301C17.9181 7.01315 17.7602 7.2526 17.5328 7.41568L16.2524 8.30381C16.125 8.39222 16.0559 8.54601 16.0657 8.70761C16.0716 8.80499 16.0745 8.9025 16.0744 9C16.0745 9.0975 16.0716 9.19501 16.0657 9.29239C16.0559 9.45399 16.125 9.60778 16.2524 9.69619L17.5328 10.5843C17.7602 10.7474 17.9181 10.9869 17.9759 11.257C18.0336 11.5271 17.9869 11.8085 17.845 12.0469L16.0999 14.9821C15.9605 15.2125 15.7404 15.3866 15.481 15.4717C15.2216 15.5567 14.938 15.5472 14.6847 15.4461L13.2103 14.7851C13.0772 14.7253 12.9204 14.7384 12.7921 14.8171C12.6162 14.9249 12.4356 15.0252 12.2508 15.1179C12.1116 15.1876 12.0171 15.3195 12.0032 15.4684L11.8609 16.992C11.8414 17.2663 11.7157 17.5229 11.5098 17.7099C11.3037 17.897 11.0326 18.0006 10.7515 18H7.24444C6.9635 18.0006 6.69252 17.897 6.48651 17.7099C6.28072 17.5229 6.15512 17.2663 6.13561 16.992L5.99339 15.4684C5.97949 15.3195 5.88505 15.1876 5.74598 15.1179C5.56129 15.0252 5.38078 14.9249 5.20495 14.8171C5.07668 14.7384 4.91999 14.7253 4.78698 14.7851L3.31341 15.4461C3.06029 15.5472 2.77683 15.5567 2.5176 15.4717C2.25835 15.3866 2.03835 15.2125 1.899 14.9821L0.154892 12.0469C0.0130687 11.8085 -0.0335773 11.5271 0.0241344 11.257C0.0818431 10.9869 0.239705 10.7474 0.46692 10.5843L1.74658 9.69619C1.87398 9.60778 1.94297 9.45399 1.93321 9.29239C1.92733 9.19501 1.92441 9.0975 1.92447 9C1.92441 8.9025 1.92733 8.80499 1.93321 8.70761ZM3.33985 9C3.34586 9.25642 3.37803 9.56587 3.42177 9.81879C3.45245 10.0506 3.35072 10.2801 3.15776 10.4144L1.81166 11.3514C1.63132 11.477 1.57868 11.7189 1.69079 11.907L2.79082 13.7527C2.9006 13.9369 3.13279 14.0094 3.32917 13.9207L4.82482 13.2456C5.04291 13.1471 5.29836 13.1792 5.48485 13.3284C5.90539 13.6455 6.44789 13.9508 6.94179 14.1429C7.15593 14.2333 7.30281 14.4329 7.32431 14.6627L7.47157 16.2367C7.49171 16.452 7.67388 16.6167 7.89192 16.6167H10.1036C10.3218 16.6167 10.504 16.452 10.5242 16.2367L10.6715 14.6627C10.6931 14.4329 10.84 14.2333 11.0543 14.1429C11.5485 13.9508 12.0913 13.6455 12.512 13.3284C12.6986 13.1792 12.9542 13.1471 13.1724 13.2456L14.6689 13.9207C14.8654 14.0094 15.0978 13.9369 15.2076 13.7527L16.3082 11.907C16.4204 11.7189 16.3678 11.477 16.1873 11.3514L14.8404 10.4144C14.6474 10.2801 14.5456 10.0506 14.5763 9.81879C14.6201 9.56587 14.6522 9.25642 14.6583 9C14.6522 8.74358 14.6201 8.43413 14.5763 8.18121C14.5456 7.94942 14.6474 7.71992 14.8404 7.58559L16.1873 6.64856C16.3678 6.52303 16.4204 6.28107 16.3082 6.09298L15.2076 4.24729C15.0978 4.0631 14.8654 3.99064 14.6689 4.07928L13.1724 4.75442C12.9542 4.85286 12.6986 4.82081 12.512 4.6716C12.0913 4.35448 11.5485 4.04924 11.0543 3.85709C10.84 3.76671 10.6931 3.56713 10.6715 3.33735L10.5242 1.76329C10.504 1.548 10.3218 1.38335 10.1036 1.38335H7.89192C7.67388 1.38335 7.49171 1.548 7.47157 1.76329L7.32431 3.33735C7.30281 3.56713 7.15593 3.76671 6.94179 3.85709C6.44789 4.04924 5.90539 4.35448 5.48485 4.6716C5.29836 4.82081 5.04291 4.85286 4.82482 4.75442L3.32917 4.07928C3.13279 3.99064 2.9006 4.0631 2.79082 4.24729L1.69079 6.09298C1.57868 6.28107 1.63132 6.52303 1.81166 6.64856L3.15776 7.58559C3.35072 7.71992 3.45245 7.94942 3.42177 8.18121C3.37803 8.43413 3.34586 8.74358 3.33985 9Z" fill="var(--text-secondary)" fill-opacity="0.6"/>
<path fill-rule="evenodd" clip-rule="evenodd" d="M8.99997 7.08641C7.94314 7.08641 7.08641 7.94314 7.08641 8.99997C7.08641 10.0568 7.94314 10.9135 8.99997 10.9135C10.0568 10.9135 10.9135 10.0568 10.9135 8.99997C10.9135 7.94314 10.0568 7.08641 8.99997 7.08641ZM5.72595 8.99997C5.72595 7.19178 7.19178 5.72595 8.99997 5.72595C10.8082 5.72595 12.274 7.19178 12.274 8.99997C12.274 10.8082 10.8082 12.274 8.99997 12.274C7.19178 12.274 5.72595 10.8082 5.72595 8.99997Z" fill="var(--text-secondary)" fill-opacity="0.6"/>
</svg>
