<svg width="20" height="17" viewBox="0 0 20 17" fill="none" xmlns="http://www.w3.org/2000/svg">
<path d="M8.89258 15.7891C8.7168 15.7891 8.54102 15.7539 8.36523 15.6836C8.20117 15.6133 8.04883 15.502 7.9082 15.3496C7.67383 15.1152 7.43359 14.8809 7.1875 14.6465C6.94141 14.4004 6.70117 14.1602 6.4668 13.9258C6.10352 13.5625 5.74023 13.1992 5.37695 12.8359C5.02539 12.4727 4.66797 12.1152 4.30469 11.7637C4.14062 11.7637 3.97656 11.7637 3.8125 11.7637C3.66016 11.7637 3.50781 11.7637 3.35547 11.7637C3.09766 11.7637 2.83984 11.7637 2.58203 11.7637C2.32422 11.7637 2.06641 11.7695 1.80859 11.7812C1.32812 11.7812 0.970703 11.6758 0.736328 11.4648C0.501953 11.2422 0.337891 11.0137 0.244141 10.7793L0.226562 10.6562V5.7168L0.279297 5.52344C0.349609 5.21875 0.525391 5.00195 0.806641 4.87305C1.08789 4.73242 1.36914 4.66211 1.65039 4.66211C1.84961 4.66211 2.04883 4.66211 2.24805 4.66211C2.44727 4.66211 2.64062 4.66211 2.82812 4.66211C3.07422 4.66211 3.32031 4.66211 3.56641 4.66211C3.8125 4.66211 4.06445 4.66211 4.32227 4.66211C4.67383 4.31055 5.01953 3.96484 5.35938 3.625C5.71094 3.27344 6.0625 2.92188 6.41406 2.57031C6.66016 2.32422 6.90625 2.07812 7.15234 1.83203C7.41016 1.57422 7.66797 1.31641 7.92578 1.05859C8.13672 0.859375 8.37109 0.730469 8.62891 0.671875C8.89844 0.613281 9.16797 0.636719 9.4375 0.742188C9.70703 0.847656 9.91211 1.01758 10.0527 1.25195C10.2051 1.48633 10.2812 1.75586 10.2812 2.06055V14.3477C10.2812 14.6641 10.2051 14.9395 10.0527 15.1738C9.90039 15.4082 9.68945 15.5781 9.41992 15.6836C9.32617 15.7188 9.23828 15.748 9.15625 15.7715C9.07422 15.7832 8.98633 15.7891 8.89258 15.7891ZM4.39258 10.498C4.54492 10.498 4.68555 10.5273 4.81445 10.5859C4.94336 10.6328 5.06641 10.709 5.18359 10.8145C5.54688 11.1895 5.91016 11.5586 6.27344 11.9219C6.63672 12.2852 7.00586 12.6484 7.38086 13.0117C7.62695 13.2578 7.86719 13.5039 8.10156 13.75C8.33594 13.9844 8.57617 14.2188 8.82227 14.4531C8.86914 14.5 8.89844 14.5234 8.91016 14.5234C8.92188 14.5234 8.94531 14.5176 8.98047 14.5059C8.99219 14.5059 9.00391 14.5 9.01562 14.4883C9.02734 14.4766 9.0332 14.4355 9.0332 14.3652V2.07812C9.0332 2.00781 9.02734 1.9668 9.01562 1.95508C9.00391 1.94336 8.98633 1.93164 8.96289 1.91992C8.95117 1.9082 8.93945 1.90234 8.92773 1.90234C8.92773 1.90234 8.91602 1.9082 8.89258 1.91992C8.88086 1.91992 8.86328 1.9375 8.83984 1.97266C8.58203 2.21875 8.32422 2.4707 8.06641 2.72852C7.82031 2.97461 7.57422 3.22656 7.32812 3.48438C6.95312 3.83594 6.58984 4.19336 6.23828 4.55664C5.88672 4.9082 5.5293 5.25391 5.16602 5.59375C5.06055 5.71094 4.94336 5.79883 4.81445 5.85742C4.68555 5.9043 4.54492 5.92773 4.39258 5.92773C4.13477 5.92773 3.87109 5.92773 3.60156 5.92773C3.34375 5.92773 3.08594 5.92773 2.82812 5.92773C2.62891 5.92773 2.42969 5.92773 2.23047 5.92773C2.03125 5.92773 1.83203 5.92773 1.63281 5.92773C1.58594 5.92773 1.54492 5.93945 1.50977 5.96289C1.48633 5.98633 1.47461 6.00977 1.47461 6.0332V10.4277C1.49805 10.4512 1.52734 10.4746 1.5625 10.498C1.60938 10.5098 1.68555 10.5156 1.79102 10.5156C2.04883 10.5039 2.30664 10.498 2.56445 10.498C2.83398 10.498 3.10352 10.498 3.37305 10.498C3.54883 10.498 3.71875 10.498 3.88281 10.498C4.04688 10.498 4.2168 10.498 4.39258 10.498ZM19.8789 8.74023C19.8438 8.95117 19.8086 9.16797 19.7734 9.39062C19.75 9.60156 19.7207 9.8125 19.6855 10.0234C19.6152 10.3867 19.5215 10.7383 19.4043 11.0781C19.2871 11.418 19.1465 11.752 18.9824 12.0801C18.8184 12.4316 18.625 12.7715 18.4023 13.0996C18.1914 13.416 17.957 13.7266 17.6992 14.0312C17.5 14.2656 17.2832 14.4883 17.0488 14.6992C16.8262 14.8984 16.5918 15.0859 16.3457 15.2617C16.0762 15.4609 15.7949 15.6484 15.502 15.8242C15.209 15.9883 14.9102 16.1406 14.6055 16.2812C14.3594 16.3867 14.125 16.3809 13.9023 16.2637C13.6914 16.1465 13.5684 15.9648 13.5332 15.7188C13.5215 15.5664 13.5625 15.4141 13.6562 15.2617C13.75 15.1094 13.8848 14.998 14.0605 14.9277C14.3652 14.7871 14.6582 14.6348 14.9395 14.4707C15.2324 14.2949 15.5078 14.1016 15.7656 13.8906C16.1289 13.5859 16.4512 13.2578 16.7324 12.9062C17.0254 12.5547 17.2832 12.1738 17.5059 11.7637C17.8105 11.2246 18.0332 10.668 18.1738 10.0938C18.3262 9.51953 18.4082 8.92773 18.4199 8.31836C18.4199 7.70898 18.3496 7.11719 18.209 6.54297C18.0684 5.95703 17.8633 5.38867 17.5938 4.83789C17.3594 4.41602 17.0957 4.02344 16.8027 3.66016C16.5098 3.28516 16.1816 2.94531 15.8184 2.64062C15.5605 2.41797 15.291 2.21875 15.0098 2.04297C14.7285 1.86719 14.4297 1.70898 14.1133 1.56836C13.9844 1.50977 13.8672 1.43945 13.7617 1.35742C13.668 1.26367 13.6035 1.14062 13.5684 0.988281C13.5332 0.847656 13.5391 0.71875 13.5859 0.601562C13.6328 0.484375 13.7148 0.373047 13.832 0.267578C13.9375 0.185547 14.0488 0.138672 14.166 0.126953C14.2949 0.103516 14.4238 0.115234 14.5527 0.162109C14.7051 0.232422 14.8633 0.308594 15.0273 0.390625C15.1914 0.472656 15.3496 0.560547 15.502 0.654297C15.9004 0.876953 16.2812 1.13477 16.6445 1.42773C17.0078 1.7207 17.3418 2.04297 17.6465 2.39453C17.8809 2.67578 18.1035 2.96875 18.3145 3.27344C18.5254 3.56641 18.7129 3.87695 18.877 4.20508C18.9824 4.39258 19.0762 4.5918 19.1582 4.80273C19.2402 5.00195 19.3223 5.20117 19.4043 5.40039C19.5332 5.74023 19.6328 6.08594 19.7031 6.4375C19.7734 6.78906 19.8262 7.14648 19.8613 7.50977C19.8613 7.54492 19.8613 7.58008 19.8613 7.61523C19.873 7.63867 19.8848 7.66797 19.8965 7.70312C19.8848 7.87891 19.8789 8.05469 19.8789 8.23047C19.8789 8.39453 19.8789 8.56445 19.8789 8.74023ZM16.9434 8.66992C16.9316 9.33789 16.75 10.0293 16.3984 10.7441C16.0586 11.4473 15.5547 12.0977 14.8867 12.6953C14.6758 12.8711 14.4531 13.0352 14.2188 13.1875C13.9961 13.3281 13.7559 13.4512 13.498 13.5566C13.2871 13.6621 13.0879 13.6855 12.9004 13.627C12.7129 13.5684 12.5723 13.4453 12.4785 13.2578C12.3965 13.0938 12.373 12.9297 12.4082 12.7656C12.4434 12.5898 12.5371 12.4492 12.6895 12.3438C12.8184 12.2734 12.9473 12.2031 13.0762 12.1328C13.2168 12.0508 13.3516 11.9688 13.4805 11.8867C13.7734 11.6992 14.0371 11.4883 14.2715 11.2539C14.5059 11.0078 14.7109 10.7383 14.8867 10.4453C15.0391 10.1875 15.1621 9.92383 15.2559 9.6543C15.3613 9.37305 15.4316 9.08594 15.4668 8.79297C15.4785 8.59375 15.4844 8.39453 15.4844 8.19531C15.4844 7.99609 15.4727 7.79688 15.4492 7.59766C15.3906 7.16406 15.2676 6.75391 15.0801 6.36719C14.9043 5.98047 14.6641 5.62305 14.3594 5.29492C14.1602 5.07227 13.9375 4.87305 13.6914 4.69727C13.4453 4.52148 13.1875 4.36914 12.918 4.24023C12.8008 4.16992 12.6953 4.09375 12.6016 4.01172C12.5078 3.91797 12.4434 3.80078 12.4082 3.66016C12.3496 3.39062 12.4199 3.16211 12.6191 2.97461C12.8301 2.78711 13.0645 2.74023 13.3223 2.83398C13.4746 2.88086 13.6211 2.93945 13.7617 3.00977C13.9141 3.08008 14.0547 3.15625 14.1836 3.23828C14.5469 3.46094 14.8691 3.71875 15.1504 4.01172C15.4434 4.29297 15.707 4.60938 15.9414 4.96094C16.2812 5.45312 16.5332 5.99219 16.6973 6.57812C16.8613 7.15234 16.9434 7.84961 16.9434 8.66992ZM14.2891 8.30078C14.2773 8.59375 14.2012 8.875 14.0605 9.14453C13.9316 9.41406 13.7266 9.64844 13.4453 9.84766C13.3867 9.88281 13.3281 9.91797 13.2695 9.95312C13.2227 9.97656 13.1758 10 13.1289 10.0234C13 10.0938 12.8711 10.1113 12.7422 10.0762C12.6133 10.0293 12.5195 9.95312 12.4609 9.84766C12.3906 9.71875 12.3672 9.60156 12.3906 9.49609C12.4141 9.37891 12.4902 9.26758 12.6191 9.16211C12.6543 9.13867 12.6895 9.11523 12.7246 9.0918C12.7598 9.05664 12.8008 9.02734 12.8477 9.00391C13.0352 8.88672 13.1113 8.61133 13.0762 8.17773C13.0527 7.73242 12.9824 7.47461 12.8652 7.4043C12.8184 7.36914 12.7656 7.33398 12.707 7.29883C12.6484 7.25195 12.5957 7.21094 12.5488 7.17578C12.4434 7.09375 12.3848 7 12.373 6.89453C12.3613 6.77734 12.3906 6.66016 12.4609 6.54297C12.5078 6.4375 12.5898 6.36719 12.707 6.33203C12.8242 6.29688 12.9414 6.29688 13.0586 6.33203C13.1992 6.39062 13.3281 6.46094 13.4453 6.54297C13.5742 6.625 13.6914 6.72461 13.7969 6.8418C13.9492 7.05273 14.0664 7.27539 14.1484 7.50977C14.2422 7.73242 14.2891 7.99609 14.2891 8.30078Z" fill="var(--text-secondary)" fill-opacity="0.6"/>
</svg>
