<svg width="22" height="22" viewBox="0 0 22 22" fill="none" xmlns="http://www.w3.org/2000/svg">
<path d="M21.5303 1.53033C21.8232 1.23744 21.8232 0.762563 21.5303 0.46967C21.2374 0.176777 20.7626 0.176777 20.4697 0.46967L0.46967 20.4697C0.176777 20.7626 0.176777 21.2374 0.46967 21.5303C0.762563 21.8232 1.23744 21.8232 1.53033 21.5303L21.5303 1.53033Z" fill="var(--text-secondary)" fill-opacity="0.6"/>
<path d="M16.0273 3.39062C16.0512 3.40253 16.0748 3.41456 16.0984 3.42671L15.0084 4.51673C14.9201 4.46973 14.8378 4.41663 14.7617 4.35742C14.668 4.26367 14.6035 4.14062 14.5684 3.98828C14.5332 3.84766 14.5391 3.71875 14.5859 3.60156C14.6328 3.48438 14.7148 3.37305 14.832 3.26758C14.9375 3.18555 15.0488 3.13867 15.166 3.12695C15.2949 3.10352 15.4238 3.11523 15.5527 3.16211C15.7051 3.23242 15.8633 3.30859 16.0273 3.39062Z" fill="var(--text-secondary)" fill-opacity="0.6"/>
<path d="M16.7648 7.7101L15.7265 8.74841C15.8643 8.94558 15.9822 9.15184 16.0801 9.36719C16.2676 9.75391 16.3906 10.1641 16.4492 10.5977C16.4727 10.7969 16.4844 10.9961 16.4844 11.1953C16.4844 11.3945 16.4785 11.5938 16.4668 11.793C16.4316 12.0859 16.3613 12.373 16.2559 12.6543C16.1621 12.9238 16.0391 13.1875 15.8867 13.4453C15.7109 13.7383 15.5059 14.0078 15.2715 14.2539C15.0371 14.4883 14.7734 14.6992 14.4805 14.8867C14.3516 14.9688 14.2168 15.0508 14.0762 15.1328L13.6895 15.3438C13.5371 15.4492 13.4434 15.5898 13.4082 15.7656C13.373 15.9297 13.3965 16.0938 13.4785 16.2578C13.5723 16.4453 13.7129 16.5684 13.9004 16.627C14.0879 16.6855 14.2871 16.6621 14.498 16.5566C14.7559 16.4512 14.9961 16.3281 15.2188 16.1875C15.4531 16.0352 15.6758 15.8711 15.8867 15.6953C16.5547 15.0977 17.0586 14.4473 17.3984 13.7441C17.75 13.0293 17.9316 12.3379 17.9434 11.6699C17.9434 10.8496 17.8613 10.1523 17.6973 9.57812C17.5332 8.99219 17.2812 8.45312 16.9414 7.96094C16.8843 7.87523 16.8254 7.79162 16.7648 7.7101Z" fill="var(--text-secondary)" fill-opacity="0.6"/>
<path d="M13.9576 10.5173L14.7166 9.75824C14.7441 9.78502 14.7708 9.81287 14.7969 9.8418C14.9492 10.0527 15.0664 10.2754 15.1484 10.5098C15.2422 10.7324 15.2891 10.9961 15.2891 11.3008C15.2773 11.5938 15.2012 11.875 15.0605 12.1445C14.9316 12.4141 14.7266 12.6484 14.4453 12.8477L14.2695 12.9531L14.1289 13.0234C14 13.0938 13.8711 13.1113 13.7422 13.0762C13.6133 13.0293 13.5195 12.9531 13.4609 12.8477C13.3906 12.7188 13.3672 12.6016 13.3906 12.4961C13.4141 12.3789 13.4902 12.2676 13.6191 12.1621L13.7246 12.0918C13.7598 12.0566 13.8008 12.0273 13.8477 12.0039C14.0352 11.8867 14.1113 11.6113 14.0762 11.1777C14.0597 10.8653 14.0202 10.6451 13.9576 10.5173Z" fill="var(--text-secondary)" fill-opacity="0.6"/>
<path d="M11.2812 5.06055V8.24388L10.0332 9.49192V5.07812C10.0332 5.00781 10.0273 4.9668 10.0156 4.95508C10.0039 4.94336 9.98633 4.93164 9.96289 4.91992C9.95117 4.9082 9.93945 4.90234 9.92773 4.90234L9.89258 4.91992C9.88086 4.91992 9.86328 4.9375 9.83984 4.97266C9.58203 5.21875 9.32422 5.4707 9.06641 5.72852C8.82031 5.97461 8.57422 6.22656 8.32812 6.48438C7.95312 6.83594 7.58984 7.19336 7.23828 7.55664C6.88672 7.9082 6.5293 8.25391 6.16602 8.59375C6.06055 8.71094 5.94336 8.79883 5.81445 8.85742C5.68555 8.9043 5.54492 8.92773 5.39258 8.92773H2.63281C2.58594 8.92773 2.54492 8.93945 2.50977 8.96289C2.48633 8.98633 2.47461 9.00977 2.47461 9.0332V13.4277C2.49805 13.4512 2.52734 13.4746 2.5625 13.498C2.60938 13.5098 2.68555 13.5156 2.79102 13.5156C3.04883 13.5039 3.30664 13.498 3.56445 13.498H5.39258C5.54492 13.498 5.68555 13.5273 5.81445 13.5859C5.84404 13.5967 5.87332 13.609 5.90228 13.6228L4.76146 14.7637H3.58203C3.32422 14.7637 3.06641 14.7695 2.80859 14.7812C2.32812 14.7812 1.9707 14.6758 1.73633 14.4648C1.50195 14.2422 1.33789 14.0137 1.24414 13.7793L1.22656 13.6562V8.7168L1.2793 8.52344C1.34961 8.21875 1.52539 8.00195 1.80664 7.87305C2.08789 7.73242 2.36914 7.66211 2.65039 7.66211H5.32227L8.92578 4.05859C9.13672 3.85938 9.37109 3.73047 9.62891 3.67188C9.89844 3.61328 10.168 3.63672 10.4375 3.74219C10.707 3.84766 10.9121 4.01758 11.0527 4.25195C11.2051 4.48633 11.2812 4.75586 11.2812 5.06055Z" fill="var(--text-secondary)" fill-opacity="0.6"/>
<path d="M10.0332 14.4417L11.2812 13.1936V17.3477C11.2812 17.6641 11.2051 17.9395 11.0527 18.1738C10.9004 18.4082 10.6895 18.5781 10.4199 18.6836C10.3262 18.7188 10.2383 18.748 10.1562 18.7715C10.0742 18.7832 9.98633 18.7891 9.89258 18.7891C9.7168 18.7891 9.54102 18.7539 9.36523 18.6836C9.20117 18.6133 9.04883 18.502 8.9082 18.3496C8.67383 18.1152 8.43359 17.8809 8.1875 17.6465L7.50794 16.9669L8.42198 16.0529C8.65373 16.2853 8.88026 16.5176 9.10156 16.75C9.33594 16.9844 9.57617 17.2188 9.82227 17.4531C9.86914 17.5 9.89844 17.5234 9.91016 17.5234C9.92188 17.5234 9.94531 17.5176 9.98047 17.5059C9.99219 17.5059 10.0039 17.5 10.0156 17.4883C10.0273 17.4766 10.0332 17.4355 10.0332 17.3652V14.4417Z" fill="var(--text-secondary)" fill-opacity="0.6"/>
<path d="M18.8409 5.63395L17.8081 6.66679C18.0989 7.02822 18.3608 7.41858 18.5938 7.83789C18.8633 8.38867 19.0684 8.95703 19.209 9.54297C19.3496 10.1172 19.4199 10.709 19.4199 11.3184C19.4082 11.9277 19.3262 12.5195 19.1738 13.0938C19.0332 13.668 18.8105 14.2246 18.5059 14.7637C18.2832 15.1738 18.0254 15.5547 17.7324 15.9062C17.4512 16.2578 17.1289 16.5859 16.7656 16.8906C16.5078 17.1016 16.2324 17.2949 15.9395 17.4707C15.6582 17.6348 15.3652 17.7871 15.0605 17.9277C14.8848 17.998 14.75 18.1094 14.6562 18.2617C14.5625 18.4141 14.5215 18.5664 14.5332 18.7188C14.5684 18.9648 14.6914 19.1465 14.9023 19.2637C15.125 19.3809 15.3594 19.3867 15.6055 19.2812C15.9102 19.1406 16.209 18.9883 16.502 18.8242C16.7949 18.6484 17.0762 18.4609 17.3457 18.2617C17.5918 18.0859 17.8262 17.8984 18.0488 17.6992C18.2832 17.4883 18.5 17.2656 18.6992 17.0312C18.957 16.7266 19.1914 16.416 19.4023 16.0996C19.625 15.7715 19.8184 15.4316 19.9824 15.0801C20.1465 14.752 20.2871 14.418 20.4043 14.0781C20.5215 13.7383 20.6152 13.3867 20.6855 13.0234C20.7207 12.8125 20.75 12.6016 20.7734 12.3906C20.8086 12.168 20.8438 11.9512 20.8789 11.7402V11.2305C20.8789 11.0547 20.8848 10.8789 20.8965 10.7031C20.8848 10.668 20.873 10.6387 20.8613 10.6152V10.5098C20.8262 10.1465 20.7734 9.78906 20.7031 9.4375C20.6328 9.08594 20.5332 8.74023 20.4043 8.40039L20.1582 7.80273C20.0762 7.5918 19.9824 7.39258 19.877 7.20508C19.7129 6.87695 19.5254 6.56641 19.3145 6.27344C19.1627 6.05421 19.0048 5.84104 18.8409 5.63395Z" fill="var(--text-secondary)" fill-opacity="0.6"/>
</svg>
