<svg width="32" height="32" viewBox="0 0 32 32" fill="none" xmlns="http://www.w3.org/2000/svg">
<path d="M25.1925 23.7135C26.6607 21.9637 27.599 19.8314 27.8973 17.5668C28.1955 15.3023 27.8413 12.9997 26.8761 10.9296C25.911 8.85939 24.3752 7.10766 22.449 5.88017C20.5227 4.65267 18.2862 4.00041 16.0021 4C13.7181 3.99959 11.4813 4.65106 9.55467 5.87786C7.62802 7.10467 6.09151 8.85585 5.12567 10.9257C4.15982 12.9955 3.80475 15.298 4.10217 17.5626C4.3996 19.8272 5.33716 21.9599 6.80471 23.7102" stroke="#1A75FF" stroke-width="2.5" stroke-linecap="round" stroke-linejoin="round"/>
<path d="M20.9553 11.5135C21.3526 11.1824 21.9368 11.2089 22.3026 11.5746L22.4253 11.6974C22.791 12.0631 22.8175 12.6473 22.4864 13.0447L17.2803 19.292C16.5928 20.117 15.3452 20.1736 14.5857 19.4142C13.8263 18.6548 13.8829 17.4072 14.708 16.7196L20.9553 11.5135Z" fill="#1A75FF"/>
</svg>
