<svg width="40" height="40" viewBox="0 0 40 40" fill="none" xmlns="http://www.w3.org/2000/svg">
<path d="M19.072 12.3108C19.4079 11.4744 20.5921 11.4744 20.928 12.3108L22.3523 15.8577C22.4953 16.2139 22.8297 16.4568 23.2126 16.4828L27.0261 16.7414C27.9254 16.8023 28.2913 17.9285 27.5996 18.5065L24.6664 20.9571C24.3719 21.2033 24.2442 21.5963 24.3378 21.9685L25.2703 25.6752C25.4902 26.5494 24.5322 27.2454 23.7688 26.7661L20.5317 24.7338C20.2066 24.5297 19.7934 24.5297 19.4683 24.7338L16.2312 26.7661C15.4678 27.2454 14.5098 26.5494 14.7297 25.6752L15.6622 21.9685C15.7558 21.5963 15.6281 21.2033 15.3336 20.9571L12.4004 18.5065C11.7087 17.9285 12.0746 16.8023 12.9739 16.7414L16.7874 16.4828C17.1703 16.4568 17.5047 16.2139 17.6477 15.8577L19.072 12.3108Z" fill="currentColor"/>
<path fill-rule="evenodd" clip-rule="evenodd" d="M6 20C6 12.268 12.268 6 20 6C27.732 6 34 12.268 34 20C34 27.732 27.732 34 20 34C12.268 34 6 27.732 6 20Z" stroke="currentColor" stroke-width="3"/>
</svg>
