<svg width="40" height="40" viewBox="0 0 40 40" fill="none" xmlns="http://www.w3.org/2000/svg">
<path d="M37.5537 27.271C38.5085 24.9658 39 22.4951 39 20C39 17.5049 38.5086 15.0342 37.5537 12.729C36.5989 10.4238 35.1993 8.32929 33.435 6.56498C31.6707 4.80066 29.5762 3.40113 27.271 2.44629C24.9658 1.49145 22.4951 1 20 1C17.5049 1 15.0342 1.49145 12.729 2.44629C10.4238 3.40112 8.32929 4.80065 6.56498 6.56497C4.80066 8.32928 3.40113 10.4238 2.44629 12.729C1.49145 15.0342 1 17.5049 1 20C1 22.4951 1.49145 24.9658 2.44629 27.271C3.40113 29.5762 4.80066 31.6707 6.56497 33.435C8.32928 35.1993 10.4238 36.5989 12.729 37.5537C15.0342 38.5085 17.5049 39 20 39C22.4951 39 24.9658 38.5086 27.271 37.5537C29.5762 36.5989 31.6707 35.1993 33.435 33.435C35.1993 31.6707 36.5989 29.5762 37.5537 27.271Z" fill="var(--global-white)"/>
<path d="M12 21.6542L14.9234 18.6449L18.2598 22.014L26.0766 14L29 17.0093L18.2598 28L12 21.6542Z" fill="var(--col-s-primary)"/>
</svg>
